<mxfile host="app.diagrams.net" modified="2023-09-17T11:20:23.689Z" agent="Mozilla/5.0 (Windows NT 10.0; Win64; x64; rv:109.0) Gecko/20100101 Firefox/117.0" etag="ttnDOavjbRzx-p6SDGmn" version="21.7.5" type="device">
  <diagram id="6a731a19-8d31-9384-78a2-239565b7b9f0" name="Page-1">
    <mxGraphModel dx="2049" dy="1077" grid="1" gridSize="10" guides="1" tooltips="1" connect="1" arrows="1" fold="1" page="1" pageScale="1" pageWidth="1169" pageHeight="827" background="none" math="0" shadow="0">
      <root>
        <mxCell id="0" />
        <mxCell id="1" parent="0" />
        <mxCell id="Mdot250a6r4Y5vPtExYO-2257" value="10.1.0.0/24" style="shape=mxgraph.cisco.switches.workgroup_switch;sketch=0;html=1;pointerEvents=1;dashed=0;fillColor=#036897;strokeColor=#ffffff;strokeWidth=2;verticalLabelPosition=bottom;verticalAlign=top;align=center;outlineConnect=0;fontSize=17;fontStyle=1;fontColor=#0000ff;" vertex="1" parent="1">
          <mxGeometry x="337.5" y="500" width="101" height="50" as="geometry" />
        </mxCell>
        <mxCell id="Mdot250a6r4Y5vPtExYO-2258" value="10.2.0.0/24" style="shape=mxgraph.cisco.switches.workgroup_switch;sketch=0;html=1;pointerEvents=1;dashed=0;fillColor=#036897;strokeColor=#ffffff;strokeWidth=2;verticalLabelPosition=bottom;verticalAlign=top;align=center;outlineConnect=0;fontSize=17;fontStyle=1;fontColor=#0000ff;" vertex="1" parent="1">
          <mxGeometry x="728" y="500" width="101" height="50" as="geometry" />
        </mxCell>
        <mxCell id="Mdot250a6r4Y5vPtExYO-2259" value="rt-clients" style="shape=mxgraph.cisco.routers.router;sketch=0;html=1;pointerEvents=1;dashed=0;fillColor=#036897;strokeColor=#ffffff;strokeWidth=2;verticalLabelPosition=top;verticalAlign=bottom;align=center;outlineConnect=0;labelPosition=center;fontSize=17;fontStyle=1;spacingLeft=-50;" vertex="1" parent="1">
          <mxGeometry x="349" y="380" width="78" height="53" as="geometry" />
        </mxCell>
        <mxCell id="Mdot250a6r4Y5vPtExYO-2260" value="rt-services" style="shape=mxgraph.cisco.routers.router;sketch=0;html=1;pointerEvents=1;dashed=0;fillColor=#036897;strokeColor=#ffffff;strokeWidth=2;verticalLabelPosition=top;verticalAlign=bottom;align=center;outlineConnect=0;labelPosition=center;fontSize=17;fontStyle=1;spacingRight=-43;" vertex="1" parent="1">
          <mxGeometry x="739.5" y="380" width="78" height="53" as="geometry" />
        </mxCell>
        <mxCell id="Mdot250a6r4Y5vPtExYO-2261" value="rt-edge" style="shape=mxgraph.cisco.routers.router;sketch=0;html=1;pointerEvents=1;dashed=0;fillColor=#036897;strokeColor=#ffffff;strokeWidth=2;verticalLabelPosition=top;verticalAlign=bottom;align=center;outlineConnect=0;labelPosition=center;fontSize=17;fontStyle=1" vertex="1" parent="1">
          <mxGeometry x="538.5" y="260" width="78" height="53" as="geometry" />
        </mxCell>
        <mxCell id="Mdot250a6r4Y5vPtExYO-2262" value="10.3.0.0/16" style="shape=mxgraph.cisco.switches.workgroup_switch;sketch=0;html=1;pointerEvents=1;dashed=0;fillColor=#036897;strokeColor=#ffffff;strokeWidth=2;verticalLabelPosition=bottom;verticalAlign=top;align=center;outlineConnect=0;fontSize=17;fontStyle=1;fontColor=#0000ff;" vertex="1" parent="1">
          <mxGeometry x="527.5" y="382" width="101" height="49" as="geometry" />
        </mxCell>
        <mxCell id="Mdot250a6r4Y5vPtExYO-2265" value="pc-one" style="shape=mxgraph.cisco.computers_and_peripherals.workstation;sketch=0;html=1;pointerEvents=1;dashed=0;fillColor=#036897;strokeColor=#ffffff;strokeWidth=2;verticalLabelPosition=bottom;verticalAlign=top;align=center;outlineConnect=0;spacingLeft=-25;fontSize=17;fontStyle=1" vertex="1" parent="1">
          <mxGeometry x="220" y="608.9" width="129" height="96.36" as="geometry" />
        </mxCell>
        <mxCell id="Mdot250a6r4Y5vPtExYO-2266" value="sr-secondary" style="shape=mxgraph.cisco.servers.fileserver;sketch=0;html=1;pointerEvents=1;dashed=0;fillColor=#036897;strokeColor=#ffffff;strokeWidth=2;verticalLabelPosition=bottom;verticalAlign=top;align=center;outlineConnect=0;fontSize=17;fontStyle=1" vertex="1" parent="1">
          <mxGeometry x="829" y="600" width="73" height="105.26" as="geometry" />
        </mxCell>
        <mxCell id="Mdot250a6r4Y5vPtExYO-2268" value="pc-two" style="shape=mxgraph.cisco.computers_and_peripherals.workstation;sketch=0;html=1;pointerEvents=1;dashed=0;fillColor=#036897;strokeColor=#ffffff;strokeWidth=2;verticalLabelPosition=bottom;verticalAlign=top;align=center;outlineConnect=0;spacingLeft=-25;fontSize=17;fontStyle=1" vertex="1" parent="1">
          <mxGeometry x="420.5" y="608.9" width="129" height="96.36" as="geometry" />
        </mxCell>
        <mxCell id="Mdot250a6r4Y5vPtExYO-2269" value="sr-primary" style="shape=mxgraph.cisco.servers.fileserver;sketch=0;html=1;pointerEvents=1;dashed=0;fillColor=#036897;strokeColor=#ffffff;strokeWidth=2;verticalLabelPosition=bottom;verticalAlign=top;align=center;outlineConnect=0;fontSize=17;fontStyle=1" vertex="1" parent="1">
          <mxGeometry x="644.5" y="600" width="73" height="105.26" as="geometry" />
        </mxCell>
        <mxCell id="Mdot250a6r4Y5vPtExYO-2270" value="Internet" style="shape=mxgraph.cisco.storage.cloud;sketch=0;html=1;pointerEvents=1;dashed=0;fillColor=#036897;strokeColor=#ffffff;strokeWidth=2;verticalLabelPosition=middle;verticalAlign=middle;align=center;outlineConnect=0;labelPosition=center;fontSize=17;fontStyle=1;fontColor=#ffffff;" vertex="1" parent="1">
          <mxGeometry x="689.5" y="140" width="124.5" height="70.95" as="geometry" />
        </mxCell>
        <mxCell id="Mdot250a6r4Y5vPtExYO-2274" style="edgeStyle=none;rounded=1;html=1;strokeColor=#23445D;endArrow=none;endFill=0;strokeWidth=4;entryX=0.88;entryY=0.1;entryDx=0;entryDy=0;entryPerimeter=0;exitX=0.2;exitY=0.87;exitDx=0;exitDy=0;exitPerimeter=0;fontSize=17;" edge="1" parent="1" source="Mdot250a6r4Y5vPtExYO-2270" target="Mdot250a6r4Y5vPtExYO-2261">
          <mxGeometry relative="1" as="geometry">
            <mxPoint x="767.5" y="208" as="sourcePoint" />
            <mxPoint x="379.5" y="280" as="targetPoint" />
          </mxGeometry>
        </mxCell>
        <mxCell id="Mdot250a6r4Y5vPtExYO-2275" style="edgeStyle=none;rounded=1;html=1;strokeColor=#23445D;endArrow=none;endFill=0;strokeWidth=4;entryX=0.5;entryY=1;entryDx=0;entryDy=0;entryPerimeter=0;exitX=0.5;exitY=0;exitDx=0;exitDy=0;exitPerimeter=0;fontSize=17;" edge="1" parent="1" source="Mdot250a6r4Y5vPtExYO-2262" target="Mdot250a6r4Y5vPtExYO-2261">
          <mxGeometry relative="1" as="geometry">
            <mxPoint x="689.5" y="232" as="sourcePoint" />
            <mxPoint x="617.5" y="275" as="targetPoint" />
          </mxGeometry>
        </mxCell>
        <mxCell id="Mdot250a6r4Y5vPtExYO-2276" style="edgeStyle=none;rounded=1;html=1;strokeColor=#23445D;endArrow=none;endFill=0;strokeWidth=4;entryX=1;entryY=0.5;entryDx=0;entryDy=0;entryPerimeter=0;exitX=0;exitY=0.5;exitDx=0;exitDy=0;exitPerimeter=0;fontSize=17;" edge="1" parent="1" source="Mdot250a6r4Y5vPtExYO-2262" target="Mdot250a6r4Y5vPtExYO-2259">
          <mxGeometry relative="1" as="geometry">
            <mxPoint x="588.5" y="390" as="sourcePoint" />
            <mxPoint x="587.5" y="323" as="targetPoint" />
          </mxGeometry>
        </mxCell>
        <mxCell id="Mdot250a6r4Y5vPtExYO-2277" style="edgeStyle=none;rounded=1;html=1;strokeColor=#23445D;endArrow=none;endFill=0;strokeWidth=4;entryX=0.98;entryY=0.5;entryDx=0;entryDy=0;entryPerimeter=0;exitX=0;exitY=0.5;exitDx=0;exitDy=0;exitPerimeter=0;fontSize=17;" edge="1" parent="1" source="Mdot250a6r4Y5vPtExYO-2260" target="Mdot250a6r4Y5vPtExYO-2262">
          <mxGeometry relative="1" as="geometry">
            <mxPoint x="537.5" y="415" as="sourcePoint" />
            <mxPoint x="465.5" y="417" as="targetPoint" />
          </mxGeometry>
        </mxCell>
        <mxCell id="Mdot250a6r4Y5vPtExYO-2278" style="edgeStyle=none;rounded=1;html=1;strokeColor=#23445D;endArrow=none;endFill=0;strokeWidth=4;entryX=0.5;entryY=0;entryDx=0;entryDy=0;entryPerimeter=0;exitX=0.5;exitY=1;exitDx=0;exitDy=0;exitPerimeter=0;fontSize=17;" edge="1" parent="1" source="Mdot250a6r4Y5vPtExYO-2259" target="Mdot250a6r4Y5vPtExYO-2257">
          <mxGeometry relative="1" as="geometry">
            <mxPoint x="519.5" y="425" as="sourcePoint" />
            <mxPoint x="447.5" y="427" as="targetPoint" />
          </mxGeometry>
        </mxCell>
        <mxCell id="Mdot250a6r4Y5vPtExYO-2279" style="edgeStyle=none;rounded=1;html=1;strokeColor=#23445D;endArrow=none;endFill=0;strokeWidth=4;entryX=0.5;entryY=0;entryDx=0;entryDy=0;entryPerimeter=0;fontSize=17;exitX=0.5;exitY=1;exitDx=0;exitDy=0;exitPerimeter=0;" edge="1" parent="1" source="Mdot250a6r4Y5vPtExYO-2260" target="Mdot250a6r4Y5vPtExYO-2258">
          <mxGeometry relative="1" as="geometry">
            <mxPoint x="860.5" y="460" as="sourcePoint" />
            <mxPoint x="516.5" y="437" as="targetPoint" />
          </mxGeometry>
        </mxCell>
        <mxCell id="Mdot250a6r4Y5vPtExYO-2280" style="edgeStyle=none;rounded=1;html=1;strokeColor=#23445D;endArrow=none;endFill=0;strokeWidth=4;entryX=0.5;entryY=0;entryDx=0;entryDy=0;entryPerimeter=0;exitX=0;exitY=0.98;exitDx=0;exitDy=0;exitPerimeter=0;fontSize=17;" edge="1" parent="1" source="Mdot250a6r4Y5vPtExYO-2257" target="Mdot250a6r4Y5vPtExYO-2265">
          <mxGeometry relative="1" as="geometry">
            <mxPoint x="539.5" y="445" as="sourcePoint" />
            <mxPoint x="467.5" y="447" as="targetPoint" />
          </mxGeometry>
        </mxCell>
        <mxCell id="Mdot250a6r4Y5vPtExYO-2281" style="edgeStyle=none;rounded=1;html=1;strokeColor=#23445D;endArrow=none;endFill=0;strokeWidth=4;entryX=0.87;entryY=0.74;entryDx=0;entryDy=0;entryPerimeter=0;exitX=0.5;exitY=0;exitDx=0;exitDy=0;exitPerimeter=0;fontSize=17;" edge="1" parent="1" source="Mdot250a6r4Y5vPtExYO-2268" target="Mdot250a6r4Y5vPtExYO-2257">
          <mxGeometry relative="1" as="geometry">
            <mxPoint x="549.5" y="455" as="sourcePoint" />
            <mxPoint x="477.5" y="457" as="targetPoint" />
          </mxGeometry>
        </mxCell>
        <mxCell id="Mdot250a6r4Y5vPtExYO-2282" style="edgeStyle=none;rounded=1;html=1;strokeColor=#23445D;endArrow=none;endFill=0;strokeWidth=4;entryX=0.5;entryY=0;entryDx=0;entryDy=0;entryPerimeter=0;exitX=0;exitY=0.98;exitDx=0;exitDy=0;exitPerimeter=0;fontSize=17;" edge="1" parent="1" source="Mdot250a6r4Y5vPtExYO-2258" target="Mdot250a6r4Y5vPtExYO-2269">
          <mxGeometry relative="1" as="geometry">
            <mxPoint x="618.5" y="465" as="sourcePoint" />
            <mxPoint x="546.5" y="467" as="targetPoint" />
          </mxGeometry>
        </mxCell>
        <mxCell id="Mdot250a6r4Y5vPtExYO-2283" style="edgeStyle=none;rounded=1;html=1;strokeColor=#23445D;endArrow=none;endFill=0;strokeWidth=4;entryX=0.87;entryY=0.74;entryDx=0;entryDy=0;entryPerimeter=0;exitX=0.5;exitY=0;exitDx=0;exitDy=0;exitPerimeter=0;fontSize=17;" edge="1" parent="1" source="Mdot250a6r4Y5vPtExYO-2266" target="Mdot250a6r4Y5vPtExYO-2258">
          <mxGeometry relative="1" as="geometry">
            <mxPoint x="628.5" y="475" as="sourcePoint" />
            <mxPoint x="556.5" y="477" as="targetPoint" />
          </mxGeometry>
        </mxCell>
        <mxCell id="Mdot250a6r4Y5vPtExYO-2284" value="1.2.3.0/28" style="text;html=1;strokeColor=none;fillColor=none;align=center;verticalAlign=middle;whiteSpace=wrap;rounded=0;fontSize=17;fontStyle=1;fontColor=#0000ff;" vertex="1" parent="1">
          <mxGeometry x="580" y="190" width="90" height="30" as="geometry" />
        </mxCell>
        <mxCell id="Mdot250a6r4Y5vPtExYO-2285" value=".4" style="text;html=1;strokeColor=none;fillColor=none;align=center;verticalAlign=middle;whiteSpace=wrap;rounded=0;fontSize=17;fontColor=#0000ff;" vertex="1" parent="1">
          <mxGeometry x="600.5" y="254" width="60" height="30" as="geometry" />
        </mxCell>
        <mxCell id="Mdot250a6r4Y5vPtExYO-2286" value=".3.1" style="text;html=1;strokeColor=none;fillColor=none;align=center;verticalAlign=middle;whiteSpace=wrap;rounded=0;fontSize=17;fontColor=#0000ff;" vertex="1" parent="1">
          <mxGeometry x="568.5" y="310" width="60" height="30" as="geometry" />
        </mxCell>
        <mxCell id="Mdot250a6r4Y5vPtExYO-2288" value=".1.1" style="text;html=1;strokeColor=none;fillColor=none;align=center;verticalAlign=middle;whiteSpace=wrap;rounded=0;fontSize=17;fontColor=#0000ff;" vertex="1" parent="1">
          <mxGeometry x="415.5" y="370" width="60" height="30" as="geometry" />
        </mxCell>
        <mxCell id="Mdot250a6r4Y5vPtExYO-2290" value=".2.1" style="text;html=1;strokeColor=none;fillColor=none;align=center;verticalAlign=middle;whiteSpace=wrap;rounded=0;fontSize=17;fontColor=#0000ff;" vertex="1" parent="1">
          <mxGeometry x="689.5" y="370" width="60" height="30" as="geometry" />
        </mxCell>
        <mxCell id="Mdot250a6r4Y5vPtExYO-2291" value=".11" style="text;html=1;strokeColor=none;fillColor=none;align=center;verticalAlign=middle;whiteSpace=wrap;rounded=0;fontSize=17;fontColor=#0000ff;" vertex="1" parent="1">
          <mxGeometry x="242" y="568.9" width="60" height="30" as="geometry" />
        </mxCell>
        <mxCell id="Mdot250a6r4Y5vPtExYO-2292" value=".11" style="text;html=1;strokeColor=none;fillColor=none;align=center;verticalAlign=middle;whiteSpace=wrap;rounded=0;fontSize=17;fontColor=#0000ff;" vertex="1" parent="1">
          <mxGeometry x="628.5" y="571.1" width="60" height="30" as="geometry" />
        </mxCell>
        <mxCell id="Mdot250a6r4Y5vPtExYO-2293" value=".12" style="text;html=1;strokeColor=none;fillColor=none;align=center;verticalAlign=middle;whiteSpace=wrap;rounded=0;fontSize=17;fontColor=#0000ff;" vertex="1" parent="1">
          <mxGeometry x="457.5" y="568.9" width="60" height="30" as="geometry" />
        </mxCell>
        <mxCell id="Mdot250a6r4Y5vPtExYO-2294" value=".12" style="text;html=1;strokeColor=none;fillColor=none;align=center;verticalAlign=middle;whiteSpace=wrap;rounded=0;fontSize=17;fontColor=#0000ff;" vertex="1" parent="1">
          <mxGeometry x="853" y="570" width="60" height="30" as="geometry" />
        </mxCell>
        <mxCell id="Mdot250a6r4Y5vPtExYO-2295" value=".1" style="text;html=1;strokeColor=none;fillColor=none;align=center;verticalAlign=middle;whiteSpace=wrap;rounded=0;fontSize=17;fontColor=#0000ff;" vertex="1" parent="1">
          <mxGeometry x="378.5" y="433" width="60" height="30" as="geometry" />
        </mxCell>
        <mxCell id="Mdot250a6r4Y5vPtExYO-2296" value=".1" style="text;html=1;strokeColor=none;fillColor=none;align=center;verticalAlign=middle;whiteSpace=wrap;rounded=0;fontSize=17;fontColor=#0000ff;" vertex="1" parent="1">
          <mxGeometry x="728" y="430" width="60" height="30" as="geometry" />
        </mxCell>
        <mxCell id="Mdot250a6r4Y5vPtExYO-2301" value=".1" style="text;html=1;strokeColor=none;fillColor=none;align=center;verticalAlign=middle;whiteSpace=wrap;rounded=0;fontSize=17;fontColor=#0000ff;" vertex="1" parent="1">
          <mxGeometry x="689.5" y="210.95" width="60" height="30" as="geometry" />
        </mxCell>
        <mxCell id="Mdot250a6r4Y5vPtExYO-2302" value="Network Policy Markup Language – Example Network Topology" style="text;html=1;strokeColor=none;fillColor=none;align=center;verticalAlign=middle;whiteSpace=wrap;rounded=0;fontSize=38;" vertex="1" parent="1">
          <mxGeometry x="40" y="40" width="1090" height="60" as="geometry" />
        </mxCell>
      </root>
    </mxGraphModel>
  </diagram>
</mxfile>
